<?xml version="1.0" encoding="UTF-8"?> <svg xmlns="http://www.w3.org/2000/svg" xml:space="preserve" width="457" height="126" style="shape-rendering:geometricPrecision;text-rendering:geometricPrecision;image-rendering:optimizeQuality;fill-rule:evenodd;clip-rule:evenodd" viewBox="0 0 92.9 25.53"> <defs> <style>.fil2{fill:#cc2229}.fil0{fill:#fff}</style> </defs> <g id="Слой_x0020_1"> <g id="_2740423629152"> <path class="fil0" d="M20.96 5.27c1.68-.37 3.47-.34 5.06.36l.07-.49 5.7.03c.85-.17 1.75-.19 2.6.02l.19.05.57-3.57h7.36l-.56 3.44c.42-.06.83-.08 1.26-.06l.55-3.38h7.33l-.46 2.82c.15-.25.3-.48.48-.7 1.3-1.56 2.97-2.14 4.93-2.28 1.2-.03 2.39.03 3.5.52l.05-.36h7.36l-.61 3.73c.42-.13.82-.2 1.24-.27 1.93-.24 3.96-.12 5.47 1.24 1.43-1.2 3.48-1.42 5.28-1.3 1.17.11 2.38.43 3.26 1.28 1.01-.82 2.28-1.15 3.55-1.28 1.95-.12 3.93.09 5.3 1.63.62.79.86 1.56.91 2.56 0 .35-.03.68-.08 1.03l-.73 4.6h-.4c.21.73.22 1.41.12 2.15l-.4 2.5c-.34 1.53-1.05 2.66-2.36 3.54-1.63.96-3.55 1.12-5.4.88-.97-.15-1.99-.47-2.73-1.16-1.59 1.17-3.61 1.39-5.51 1.2-.62-.08-1.19-.21-1.77-.44l-.05.3h-5.06c-.88.21-1.75.22-2.65.15-.31-.05-.64-.1-.94-.2v.05h-7.36l.04-.24c-1.53.52-3.17.5-4.72.12-1.61-.46-2.89-1.45-3.29-3.15l-.52 3.27h-4.48l-.3-.08c-1.24.39-2.57.38-3.79-.1l-.02.18H23.09l.01-.09c-.4.11-.81.18-1.24.23-2.01.18-4.23 0-5.67-1.61l-.41 1.47H1.48L2.49 1.67h19.48l-1.01 3.6z"></path> <path d="m24.56 5.4 2.92.45-2.05 1.13-.12-.05-.12-.04-.12-.05-.12-.04-.12-.04-.12-.03-.12-.03-.13-.03-.12-.03-.13-.03-.13-.02-.12-.02-.13-.01-.13-.02-.13-.01-.14-.01h-.13l-.13-.01h-.27l-.13.01h-.13l-.14.01-.14.01-.13.02-.14.01-.13.02-.14.02-.13.02-.14.03-.13.03-.14.02-.65-2.88.18-.03.18-.04.19-.03.18-.04.18-.02.19-.03.18-.02.19-.02.19-.01.18-.02h.19l.19-.01h.38l.19.01.18.01.19.01.19.01.19.02.19.03.19.03.19.03.19.04.19.04.19.04.19.05.18.06.19.05.19.07.18.07.18.07.19.07-2.05 1.13zm2.05-1.13c.74.33 1.09 1.2.76 1.95a1.47 1.47 0 0 1-1.94.76l1.18-2.71zm.94 1.09-.07.49-2.92-.45.07-.49 1.47-1.25 1.45 1.7zm-2.92-.45c.13-.8.88-1.36 1.69-1.23.8.12 1.35.87 1.23 1.68l-2.92-.45zm7.15 1.74-5.7-.04.02-2.95 5.7.04.3 2.92-.32.03zm.02-2.95c.82 0 1.48.67 1.47 1.48 0 .82-.67 1.47-1.49 1.47l.02-2.95zm2.98.06-.77 2.85.05.01-.06-.01-.06-.01-.06-.01-.06-.02h-.06l-.06-.01-.06-.01-.06-.01-.06-.01h-.06l-.06-.01h-.19l-.06-.01h-.12l-.07.01h-.18l-.06.01h-.07l-.06.01-.06.01h-.06l-.06.01-.07.01-.06.01-.06.01-.06.02-.06.01-.61-2.89.1-.02.1-.02.09-.02.11-.01.09-.02.1-.01.1-.02.1-.01.1-.01h.1l.1-.01.1-.01h.11l.1-.01h.4l.11.01h.1l.1.01.1.01.11.01.1.01.1.01.1.01.11.02.1.01.1.02.11.02.1.03.1.02.05.01zm-.05-.01c.79.18 1.29.98 1.1 1.77-.19.8-.98 1.29-1.77 1.1l.67-2.87zm-.53 2.91-.19-.05.77-2.85.18.05 1.08 1.66-1.84 1.19zm.76-2.85a1.48 1.48 0 0 1 1.05 1.81c-.21.79-1.02 1.25-1.81 1.04l.76-2.85zm1.65-1.91-.57 3.57L33.12 5l.57-3.57L35.15.19l1.46 1.71zm-2.92-.47c.13-.8.89-1.35 1.69-1.22.81.13 1.36.88 1.23 1.69l-2.92-.47zm8.82 1.71h-7.36V.19h7.36l1.45 1.71-1.45 1.24zm0-2.95a1.475 1.475 0 0 1 0 2.95V.19zm-2.02 4.69.56-3.45 2.91.47-.55 3.45-1.24 1.22-1.68-1.69zm2.92.47a1.478 1.478 0 0 1-2.92-.47l2.92.47zm-1.66-.54 2.92.47-1.5 1.24H42.68l-.03.01h-.16l-.03.01h-.08l-.04.01h-.05l-.03.01h-.03l-.03.01h-.03l-.44-2.92.05-.01h.05l.05-.01.05-.01h.05l.05-.01h.04l.05-.01h.06l.04-.01h.1l.05-.01h.14l.05-.01H43.26l-1.51 1.24zm1.51-1.24c.81.02 1.45.7 1.43 1.52-.03.81-.71 1.46-1.52 1.43l.09-2.95zm1.95-1.67-.54 3.38-2.92-.47.55-3.38L43.76.19l1.45 1.71zm-2.91-.47a1.473 1.473 0 1 1 2.91.47l-2.91-.47zm8.79 1.71h-7.33V.19h7.33l1.45 1.71-1.45 1.24zm0-2.95a1.475 1.475 0 0 1 0 2.95V.19zm-1.92 4.07.46-2.83 2.91.47-.45 2.83-.19.52-2.73-.99zm2.92.47a1.478 1.478 0 0 1-2.92-.47l2.92.47zm-2.11-1.89 2.26 1.89.04-.04-.02.02-.01.02-.01.01-.01.01-.01.02-.02.02-.01.02-.01.01-.01.02-.01.01-.02.02-.01.02-.01.02-.01.01-.01.02-.02.02-.01.01-.01.02-.01.02-.01.02-.01.01-.02.02-.01.02-.01.02-.01.02-.01.01-.01.02-.02.03-.01.01-.01.02-.01.02-.01.02-2.53-1.52.01-.03.02-.02.01-.03.02-.03.02-.02.01-.03.02-.03.02-.02.02-.03.01-.03.02-.03.02-.02.02-.03.01-.02.02-.03.02-.03.02-.02.02-.03.01-.03.02-.02.02-.03.02-.03.02-.02.02-.03.02-.03.02-.03.01-.02.02-.02.03-.04.02-.02.01-.02.03-.03.03-.04zm-.03.04c.5-.65 1.42-.76 2.07-.26.64.5.76 1.43.26 2.07l-2.33-1.81zM56 .04l.09 2.95h.06l-.16.01-.16.01-.16.02-.15.02-.15.02-.15.03-.14.02-.14.03-.14.03-.13.04-.14.03-.13.04-.12.04-.13.05-.12.05-.12.04-.11.06-.12.05-.11.06-.11.06-.11.07-.11.06-.1.07-.11.08-.1.08-.1.08-.1.09-.1.09-.1.09-.09.1-.1.11-.1.11-2.26-1.89.15-.18.15-.16.16-.17.16-.15.16-.15.17-.15.17-.14.17-.13.18-.13.18-.12.18-.11.18-.11.18-.1.19-.1.19-.09.19-.09.19-.08.2-.07.19-.07.2-.06.19-.06.2-.06.2-.05.2-.04.2-.04.21-.04.2-.04.2-.02.2-.03.21-.02.2-.02.21-.02H56zm-.06 0c.81-.06 1.52.56 1.58 1.37.05.81-.56 1.52-1.37 1.58L55.94.04zm2.14 1.79 2.92.4-2.06 1.15-.07-.03-.08-.03-.08-.03-.07-.03-.08-.02-.08-.03-.08-.02-.08-.02-.08-.02-.08-.02-.09-.02-.08-.02-.09-.01-.08-.02-.09-.01-.09-.01-.09-.01-.09-.01-.09-.01-.09-.01h-.09l-.1-.01h-.19l-.1-.01h-.5l-.11.01h-.1L56 .04h.12l.12-.01h.74l.13.01h.12l.13.01.13.01.13.01.13.01.12.01.14.02.13.02.13.02.13.02.13.02.13.03.14.02.13.04.14.03.13.04.13.03.14.05.13.04.14.05.13.05.13.05.14.06-2.06 1.15zM60.14.68c.74.33 1.08 1.2.75 1.95-.33.74-1.2 1.08-1.95.75l1.2-2.7zm.91 1.19-.05.36-2.92-.4.05-.37L59.59.19l1.46 1.68zm-2.92-.41c.11-.8.85-1.37 1.66-1.26.81.11 1.37.86 1.26 1.67l-2.92-.41zm8.82 1.68h-7.36V.19h7.36L68.4 1.9l-1.45 1.24zm0-2.95a1.475 1.475 0 0 1 0 2.95V.19zm-2.07 4.97.61-3.73 2.91.47-.6 3.74-1.03 1.17-1.89-1.65zm2.92.48c-.13.8-.89 1.35-1.7 1.22-.8-.13-1.35-.89-1.22-1.7l2.92.48zm-.41-1.97.37 2.93.04-.01-.04.01-.04.01h-.03l-.03.01h-.04l-.03.01h-.04l-.03.01-.03.01h-.04l-.03.01h-.03l-.04.01-.03.01h-.03l-.03.01h-.03l-.03.01-.04.01-.03.01h-.03l-.03.01-.03.01-.03.01h-.03l-.03.01-.03.01-.03.01-.04.01-.03.01h-.02l-.03.01-.86-2.82.05-.02.05-.01.05-.02.04-.01.05-.01.05-.01.04-.02.05-.01.05-.01.04-.01.05-.01.05-.01.04-.01.05-.01.04-.01.05-.01.04-.01.05-.01.04-.01.05-.01.04-.01h.05l.04-.01.04-.01.05-.01h.04l.04-.01.05-.01.04-.01h.04l.04-.01.05-.01h.03zm-.03 0c.8-.12 1.55.44 1.68 1.25.12.8-.44 1.55-1.24 1.67l-.44-2.92zm4.74 1.57L74 7.5l-1.94-.03-.1-.09-.1-.08-.1-.08-.1-.07-.11-.06-.11-.07-.11-.05-.12-.06-.11-.05-.12-.05-.12-.04-.13-.04-.12-.04-.13-.03-.14-.03-.13-.03-.14-.02-.14-.02-.14-.01-.15-.02-.15-.01h-.15l-.15-.01h-.31l-.15.01-.16.01-.16.01-.16.01-.17.01-.16.02-.16.02-.37-2.93.2-.02.2-.03.21-.01.2-.02.21-.01.2-.01.21-.01h.42l.21.01.21.01.21.01.22.02.21.02.22.03.21.04.22.04.21.05.22.05.21.07.22.06.21.08.21.09.21.09.21.1.21.11.2.11.21.13.2.14.19.14.19.15.19.16-1.94-.03zm1.94.03c.61.55.65 1.48.11 2.09-.55.6-1.48.65-2.09.11l1.98-2.2zm4.43-1.67-.29 2.94h.04l-.15-.01h-.15l-.15-.01h-.6l-.15.01-.15.01-.15.01-.15.01-.15.02-.14.02-.15.02-.14.02-.14.03-.13.03-.14.03-.13.04-.13.04-.13.04-.12.04-.12.05-.12.05-.12.06-.11.05-.11.06-.1.06-.1.07-.1.07-.1.07-.09.07-1.9-2.26.18-.14.18-.14.19-.13.19-.12.19-.12.2-.1.2-.1.19-.09.2-.09.21-.08.2-.07.2-.07.21-.06.2-.06.21-.05.2-.04.21-.04.2-.04.2-.03.21-.02.2-.03.2-.02.21-.01.2-.01.19-.01h.2l.2-.01.2.01h.19l.19.01.19.01.19.01h.04zm-.04 0c.81.06 1.43.76 1.37 1.58a1.47 1.47 0 0 1-1.58 1.36l.21-2.94zm2.23 1.6 1.86 2.29-1.95-.08-.05-.04-.05-.05-.05-.04-.06-.05-.05-.04-.06-.03-.06-.04-.06-.04-.06-.04-.07-.03-.07-.03-.06-.04-.08-.03-.07-.03-.07-.03-.07-.02-.08-.03-.08-.03-.08-.02-.08-.02-.09-.02-.08-.03-.09-.01-.08-.02-.09-.02-.09-.02-.09-.01-.09-.01-.09-.02-.1-.01-.09-.01-.1-.01.29-2.94.12.02.13.01.13.02.13.01.13.02.13.02.13.03.13.02.13.03.13.03.13.03.14.04.13.03.14.04.13.05.13.04.14.05.13.05.13.06.14.06.13.06.13.07.13.07.13.07.13.08.13.08.13.09.12.09.13.1.12.09.12.11.11.11-1.95-.08zm1.95.08c.59.56.61 1.5.05 2.09-.56.59-1.5.61-2.09.04l2.04-2.13zm2.43-1.68.19 2.94h.05l-.1.01-.1.01-.11.02-.1.01-.1.02-.1.01-.1.02-.1.02-.09.02-.1.02-.09.02-.1.02-.09.03-.09.02-.09.03-.08.03-.09.03-.09.03-.08.03-.08.03-.08.04-.08.04-.08.03-.08.04-.07.04-.07.05-.08.04-.07.04-.07.05-.06.05-.07.05-.07.05-1.86-2.29.13-.1.12-.09.13-.1.13-.08.13-.09.14-.08.13-.07.13-.08.14-.07.14-.06.13-.07.14-.05.14-.06.13-.05.14-.05.14-.05.14-.05.14-.04.14-.04.13-.04.14-.03.14-.03.14-.03.14-.03.13-.03.14-.02.14-.02.13-.02.14-.02.13-.02.14-.01.13-.02h.05zm-.05 0c.81-.08 1.54.52 1.62 1.33.08.81-.52 1.53-1.33 1.61l-.29-2.94zm6.61 2.19-2.33 1.82.06.07-.09-.1-.09-.09-.09-.08-.09-.08-.1-.08-.1-.07-.1-.06-.1-.06-.1-.06-.11-.05-.11-.06-.11-.04-.12-.05-.12-.04-.13-.03-.12-.04-.13-.03-.14-.03-.13-.02-.14-.02-.15-.02-.14-.02-.15-.01-.15-.01-.16-.01h-.63l-.17.01-.16.01h-.17l-.19-2.94.2-.01.21-.01.2-.01h.2l.21-.01.2.01h.21l.21.01.21.02.21.01.21.03.21.02.22.04.21.03.21.05.21.05.22.06.21.06.21.07.21.08.21.09.21.09.2.11.21.11.2.12.2.13.19.14.19.15.19.15.18.17.17.18.17.18.06.07zm-.06-.07c.54.61.49 1.55-.12 2.09-.61.54-1.55.48-2.09-.13l2.21-1.96zm1.28 3.54h-2.95v.08-.08l-.01-.07v-.07l-.01-.07-.01-.06-.01-.06v-.06l-.01-.06-.01-.06-.02-.06-.01-.05-.01-.05-.01-.05-.02-.06-.02-.05-.01-.04-.02-.05-.02-.05-.02-.05-.02-.04-.02-.05-.02-.05-.02-.04-.03-.05-.03-.05-.02-.05-.03-.05-.04-.05-.03-.05-.04-.05-.04-.05-.04-.05 2.33-1.82.08.1.07.1.07.09.06.1.07.1.06.1.06.1.06.1.05.1.05.11.05.1.05.11.05.1.04.11.04.1.04.11.04.11.03.11.03.11.03.11.03.11.02.11.02.11.02.11.02.11.02.11.01.11.02.11.01.11.01.11v.11l.01.12v.07zm0-.07c.04.81-.58 1.5-1.4 1.55-.81.04-1.51-.59-1.55-1.4l2.95-.15zm-.09 1.34-2.92-.47v.03-.03l.01-.03v-.05l.01-.03V9.9l.01-.03v-.08l.01-.02V9.7l.01-.03V9.52l.01-.03V9.26h2.95v.35l-.01.04v.16l-.01.04v.07l-.01.04v.08l-.01.04v.08l-.01.04v.03l-.01.04v.05l-.01.03v.03l-.01.05v.03l-.01.04v.03zm0-.03c-.11.81-.86 1.37-1.67 1.26-.8-.12-1.37-.87-1.25-1.67l2.92.41zm-3.65 4.16.73-4.6 2.92.47-.73 4.59-1.46 1.24-1.46-1.7zm2.92.46c-.13.81-.89 1.35-1.69 1.23-.81-.13-1.36-.89-1.23-1.69l2.92.46zm-1.86-1.71h.4v2.95h-.4l-1.42-1.06 1.42-1.89zm0 2.95a1.475 1.475 0 1 1 0-2.95v2.95zm1.58.92-2.92-.47v.04l.01-.06v-.05l.01-.06v-.06l.01-.05v-.05l.01-.05V16.32l.01-.05v-.14l-.01-.05v-.14l-.01-.04v-.05l-.01-.04v-.05l-.01-.04-.01-.05v-.04l-.01-.05-.01-.04-.01-.05-.01-.05-.02-.04-.01-.05-.01-.05 2.83-.83.03.09.02.09.02.09.02.09.02.09.02.09.02.09.02.09.01.09.01.08.01.09.01.09.01.09.01.09.01.08v.18l.01.08v.34l-.01.09v.09l-.01.08v.08l-.01.09-.01.08-.01.09v.08l-.01.08-.02.08v.04zm0-.04c-.1.81-.85 1.38-1.66 1.27-.8-.11-1.37-.86-1.26-1.66l2.92.39zm-3.32 2.07.4-2.5 2.92.47-.41 2.5-.01.08-2.9-.55zm2.91.47a1.473 1.473 0 1 1-2.91-.47l2.91.47zm-3.06 4.57-1.5-2.55-.07.05.1-.07.09-.06.08-.07.09-.06.08-.07.07-.06.08-.07.07-.07.06-.07.07-.07.06-.07.06-.07.06-.07.05-.07.06-.08.05-.07.05-.08.05-.08.04-.08.05-.09.04-.08.04-.09.04-.09.04-.09.04-.1.03-.1.04-.1.03-.1.03-.11.03-.11.03-.11.03-.12 2.88.64-.04.17-.04.17-.05.16-.05.17-.05.16-.05.16-.06.16-.06.16-.07.15-.06.16-.08.15-.07.15-.08.15-.08.15-.09.14-.09.15-.1.14-.1.13-.1.14-.11.13-.11.14-.11.12-.12.13-.12.12-.13.12-.12.12-.14.11-.13.12-.14.11-.14.1-.15.11-.14.1-.07.04zm.07-.04c-.68.45-1.6.26-2.05-.42-.45-.68-.27-1.59.41-2.04l1.64 2.46zm-6.45 1.11.45-2.92-.03-.01.15.02.16.02.15.01.15.02.15.01h.16l.15.01h.44l.15-.01.15-.01.15-.01.14-.01.14-.02.15-.01.14-.03.13-.02.14-.03.14-.03.14-.03.13-.04.13-.04.13-.04.13-.04.13-.05.12-.05.13-.06.12-.05.12-.06.12-.07.12-.07 1.5 2.55-.19.11-.19.1-.19.09-.2.09-.19.09-.2.08-.19.07-.2.07-.2.07-.2.06-.2.05-.2.05-.2.04-.2.04-.21.04-.2.03-.2.03-.2.02-.2.02-.2.01-.2.01-.2.01H83.29l-.2-.01-.2-.01-.2-.01-.2-.01-.19-.02-.2-.02-.19-.03h-.04zm.04 0c-.81-.1-1.38-.84-1.28-1.65.11-.81.85-1.38 1.66-1.28l-.38 2.93zm-1.66-1.43-1.75-2.38 1.89.12.04.03.04.04.04.03.04.03.04.04.05.03.05.03.05.03.05.03.05.03.05.03.06.02.06.03.05.03.07.02.06.03.06.02.06.03.07.02.07.02.07.02.07.02.07.02.07.02.07.02.07.02.08.01.07.02.08.01.07.02.08.01.07.01-.45 2.92-.1-.02-.11-.02-.11-.02-.11-.02-.11-.02-.11-.02-.11-.03-.1-.03-.12-.03-.11-.03-.11-.03-.11-.03-.12-.04-.11-.04-.11-.04-.12-.04-.11-.05-.11-.05-.11-.05-.12-.05-.11-.06-.11-.06-.11-.06-.11-.07-.11-.06-.11-.08-.11-.07-.11-.08-.1-.08-.11-.09-.1-.09-.1-.09 1.89.12zm-1.89-.12c-.59-.56-.62-1.5-.06-2.09.56-.59 1.5-.61 2.09-.05l-2.03 2.14zm-4.68 1.59.36-2.93h-.03l.16.01.15.01.16.01.16.01.16.01h.47l.15-.01h.15l.15-.01.15-.02.15-.01.15-.02.15-.03.14-.02.14-.03.15-.03.13-.04.14-.03.14-.05.13-.04.13-.05.13-.05.12-.05.13-.06.12-.06.12-.06.12-.07.11-.07.12-.08.11-.08 1.75 2.38-.19.13-.19.13-.19.12-.2.11-.2.11-.2.1-.2.1-.21.08-.2.08-.21.08-.21.07-.21.06-.2.06-.21.05-.21.05-.21.04-.21.04-.21.03-.21.03-.21.02-.21.02-.21.01-.21.01-.2.01h-.62l-.2-.01-.21-.01-.2-.01-.2-.02-.2-.01-.03-.01zm.03.01c-.81-.09-1.4-.81-1.32-1.62.08-.81.81-1.4 1.62-1.32l-.3 2.94zm-.16-1.67-2.91-.49 2.02-1.12.04.02.04.01.04.02.04.01.04.02.04.01.04.02.04.01.04.01.04.02.04.01.05.01.04.01.04.01.04.01.04.01.05.01.04.01.04.01.04.01.05.01.04.01.04.01.05.01h.05l.04.01.05.01.05.01h.04l.05.01.05.01h.05l-.36 2.93-.06-.01h-.07l-.07-.01-.07-.01-.06-.01-.07-.01-.06-.01-.07-.02-.07-.01-.07-.01-.06-.01-.07-.02-.06-.01-.07-.02-.07-.01-.07-.02-.06-.01-.07-.02-.07-.02-.07-.02-.06-.02-.07-.02-.07-.02-.07-.02-.07-.02-.06-.03-.07-.02-.07-.02-.07-.03-.07-.03-.06-.02-.07-.03 2.02-1.12zm-2.02 1.12a1.483 1.483 0 0 1-.8-1.93 1.48 1.48 0 0 1 1.93-.8l-1.13 2.73zm-.94-1.31.05-.3 2.91.49-.05.3-1.46 1.23-1.45-1.72zm2.91.49c-.14.81-.9 1.35-1.7 1.21-.8-.13-1.35-.89-1.21-1.7l2.91.49zm-6.52-1.72h5.06v2.95h-5.06l-.34-2.91.34-.04zm0 2.95a1.475 1.475 0 0 1 0-2.95v2.95zm-2.88.14.47-2.92-.11-.01h.07l.08.01h.07l.07.01h.08l.07.01h.28l.07.01.07-.01h.28l.06-.01h.14l.06-.01.07-.01h.06l.07-.01.06-.01.07-.01.06-.01.07-.01.06-.01.06-.01.07-.02.06-.01.07-.02.69 2.87-.1.03-.1.02-.1.02-.1.02-.1.02-.1.02-.11.01-.1.02-.1.01-.09.01-.11.01-.1.01-.09.01-.1.01h-.1l-.1.01h-.19l-.1.01h-.38l-.1-.01h-.19l-.09-.01h-.1l-.09-.01-.1-.01h-.09l-.09-.01-.11-.01zm.11.01c-.81-.07-1.42-.78-1.35-1.59.07-.82.79-1.42 1.6-1.35l-.25 2.94zm.65-1.67h-2.95l1.95-1.4h.01l.01.01h.02l.01.01h.03l.02.01h.02l.01.01h.03l.02.01h.02l.02.01h.04l.02.01h.03l.02.01h.02l.03.01h.02l.03.01h.05l.03.01h.03l.03.01h.02l.03.01h.03l.03.01h.03l-.47 2.92-.03-.01h-.03l-.02-.01h-.04l-.03-.01h-.03l-.03-.01h-.04l-.03-.01h-.03l-.04-.01-.04-.01h-.03l-.04-.01-.03-.01h-.04l-.03-.01-.04-.01-.04-.01-.04-.01-.04-.01h-.04l-.04-.01-.04-.01-.04-.01-.04-.01-.04-.02-.05-.01-.04-.01-.04-.01-.05-.02-.04-.01 1.94-1.4zm-1.94 1.4a1.476 1.476 0 1 1 .94-2.8l-.94 2.8zm-1.01-1.35v-.05h2.95v.05l-1.47 1.47-1.48-1.47zm2.95 0a1.475 1.475 0 0 1-2.95 0h2.95zm-8.83-1.48h7.36v2.95h-7.36l-1.46-1.7 1.46-1.25zm0 2.95a1.475 1.475 0 0 1 0-2.95v2.95zm1.5-1.49-.04.24-2.92-.45.04-.24.99-1.17 1.93 1.62zm-2.92-.45a1.478 1.478 0 0 1 2.92.45l-2.92-.45zm-3.67 1.77.82-2.83-.06-.02.13.03.12.03.12.02.13.03.12.02.13.02.12.02.13.01.13.01.12.02.12.01h.13l.12.01h.5l.12-.01.12-.01.12-.01.12-.01.12-.01.12-.02.12-.02.12-.02.12-.02.12-.03.11-.02.12-.03.12-.04.11-.03.12-.04.94 2.8-.17.05-.17.06-.18.04-.17.05-.17.04-.18.04-.17.03-.18.04-.17.02-.18.03-.18.02-.17.02-.18.01-.17.01-.18.01h-.7l-.17-.01-.18-.01-.17-.01-.17-.02-.17-.02-.17-.02-.18-.02-.17-.03-.17-.03-.17-.03-.16-.04-.17-.03-.17-.04-.06-.02zm.06.02a1.47 1.47 0 0 1-1.08-1.79c.19-.79.99-1.27 1.78-1.08l-.7 2.87zm-1.48-4.36-2.92-.46 2.9-.11.02.11.03.1.03.09.04.09.04.09.04.09.04.08.05.08.04.08.05.07.06.08.05.06.06.07.06.07.06.06.07.07.07.06.08.06.07.06.08.05.09.06.08.05.09.06.1.05.09.04.1.05.11.05.1.04.11.04.12.04.11.04.12.04-.82 2.83-.18-.05-.18-.06-.18-.06-.18-.07-.18-.07-.17-.08-.17-.08-.17-.09-.17-.09-.17-.1-.16-.1-.16-.1-.16-.12-.15-.11-.15-.13-.15-.13-.14-.13-.14-.14-.14-.15-.13-.15-.12-.16-.12-.16-.12-.17-.1-.17-.1-.18-.1-.18-.09-.19-.08-.2-.08-.19-.06-.21-.06-.2-.06-.21 2.9-.11zm-2.9.11c-.19-.79.31-1.59 1.1-1.78.79-.18 1.59.31 1.78 1.1l-2.88.68zm-.54 2.7.52-3.27 2.92.46-.52 3.27-1.46 1.24-1.46-1.7zm2.92.46c-.13.8-.89 1.35-1.69 1.23-.81-.13-1.35-.89-1.23-1.69l2.92.46zm-5.94-1.71h4.48v2.95h-4.48l-.36-.04.36-2.91zm0 2.95a1.475 1.475 0 0 1 0-2.95v2.95zm.06-2.98.3.07-.72 2.87-.3-.08-.09-2.84.81-.02zm-.72 2.86c-.79-.19-1.27-.99-1.07-1.79.19-.79 1-1.27 1.79-1.07l-.72 2.86zm-1.96-1.32-2.93-.42 2.01-1.16.08.03.08.03.09.03.08.02.08.03.09.02.08.02.09.02.09.01.08.02.09.01.09.01.08.01h.09l.09.01h.36l.09-.01h.09l.08-.01.09-.01.09-.01.09-.02.09-.01.09-.02.09-.02.09-.02.09-.02.09-.03.08-.03.89 2.82-.14.04-.15.04-.14.04-.15.04-.15.03-.14.03-.15.03-.15.02-.15.02-.15.02-.15.01-.15.01-.15.01h-.61l-.15-.01-.15-.01-.15-.02-.15-.01-.15-.03-.15-.02-.15-.03-.15-.03-.15-.03-.15-.04-.15-.04-.15-.05-.15-.05-.14-.05-.15-.06 2.01-1.16zm-2.01 1.16c-.76-.3-1.13-1.15-.83-1.91.3-.76 1.16-1.13 1.92-.83l-1.09 2.74zm-.94-1.4.02-.18 2.93.42-.03.18-1.46 1.26-1.46-1.68zm2.92.42c-.12.8-.87 1.36-1.67 1.25-.81-.12-1.37-.87-1.25-1.67l2.92.42zm-17.32-1.69h15.86v2.95H23.09l-1.46-1.67 1.46-1.28zm0 2.95a1.475 1.475 0 1 1 0-2.95v2.95zm1.47-1.36-.01.09-2.92-.4.01-.09 1.06-1.22 1.86 1.62zm-2.92-.4c.11-.81.86-1.38 1.66-1.26.81.11 1.38.85 1.26 1.66l-2.92-.4zm.36 1.9-.27-2.94h-.04l.04-.01h.07l.04-.01h.04l.03-.01h.03l.04-.01h.03l.03-.01h.03l.04-.01h.03l.03-.01h.03l.04-.01h.03l.03-.01h.03l.02-.01.04-.01h.03l.03-.01h.02l.03-.01.03-.01h.03l.03-.01.03-.01.02-.01h.03l.03-.01.8 2.84-.04.01-.05.01-.05.02-.05.01-.04.01-.05.01-.05.02-.05.01-.05.01-.04.01-.05.01-.04.01h-.05l-.05.01-.05.01-.04.01-.05.01-.04.01h-.05l-.04.01-.05.01h-.04l-.05.01-.04.01h-.05l-.04.01-.05.01h-.04l-.04.01h-.05l-.04.01h-.05l-.03.01zm.03-.01c-.81.1-1.54-.48-1.63-1.29-.1-.81.48-1.55 1.29-1.64l.34 2.93zm-4.42-2.67L14.76 22l2.53-.59.09.1.09.09.1.09.1.08.1.07.11.08.11.07.11.06.12.06.12.06.12.05.13.05.13.04.14.04.13.04.14.04.15.03.15.02.15.03.15.02.16.01.16.02.16.01.17.01h.49l.17-.01.17-.01.17-.01.18-.01.17-.01.27 2.94-.21.01-.21.02-.21.01-.21.01-.22.01h-.66l-.22-.01-.22-.02-.23-.02-.22-.02-.23-.03-.23-.03-.22-.05-.23-.04-.23-.06-.22-.06-.23-.07-.22-.08-.23-.08-.22-.1-.22-.1-.22-.12-.21-.12-.22-.13-.2-.14-.21-.16-.2-.16-.19-.17-.19-.19-.18-.19 2.52-.59zm-2.52.59c-.55-.61-.5-1.54.11-2.09.61-.54 1.54-.49 2.09.12l-2.2 1.97zm-.73.08.4-1.46 2.85.79-.4 1.46-1.43 1.08-1.42-1.87zm2.85.79c-.22.79-1.03 1.25-1.82 1.03a1.474 1.474 0 0 1-1.03-1.82l2.85.79zM1.48 22.38h14.3v2.95H1.48L0 23.79l1.48-1.41zm0 2.95a1.475 1.475 0 1 1 0-2.95v2.95zm2.48-23.6L2.95 23.92 0 23.79 1.01 1.6 2.49.19l1.47 1.54zM1.01 1.6a1.475 1.475 0 1 1 2.95.13L1.01 1.6zm20.96 1.54H2.49V.19h19.48l1.42 1.87-1.42 1.08zm0-2.95a1.475 1.475 0 0 1 0 2.95V.19zm-2.43 4.69 1-3.61 2.85.79-1.01 3.61-1.1 1.04-1.74-1.83zm2.84.79a1.473 1.473 0 1 1-2.84-.79l2.84.79z" style="fill:#cc2229;fill-rule:nonzero"></path> <path class="fil0" d="M20.96 5.27c1.68-.37 3.47-.34 5.06.36l.07-.49 5.7.03c.85-.17 1.75-.19 2.6.02l.19.05.57-3.57h7.36l-.56 3.44c.42-.06.83-.08 1.26-.06l.55-3.38h7.33l-.46 2.82c.15-.25.3-.48.48-.7 1.3-1.56 2.97-2.14 4.93-2.28 1.2-.03 2.39.03 3.5.52l.05-.36h7.36l-.61 3.73c.42-.13.82-.2 1.24-.27 1.93-.24 3.96-.12 5.47 1.24 1.43-1.2 3.48-1.42 5.28-1.3 1.17.11 2.38.43 3.26 1.28 1.01-.82 2.28-1.15 3.55-1.28 1.95-.12 3.93.09 5.3 1.63.62.79.86 1.56.91 2.56 0 .35-.03.68-.08 1.03l-.73 4.6h-.41c.22.73.23 1.41.13 2.15l-.4 2.5c-.34 1.53-1.05 2.66-2.36 3.54-1.63.95-3.55 1.12-5.4.88-.97-.15-1.99-.47-2.73-1.16-1.59 1.17-3.61 1.39-5.51 1.2-.62-.08-1.19-.21-1.77-.44l-.05.3h-5.06c-.88.21-1.75.22-2.65.15-.31-.05-.64-.1-.94-.2v.05h-7.36l.04-.24c-1.53.52-3.17.5-4.72.12-1.61-.46-2.89-1.45-3.29-3.15l-.52 3.27h-4.48l-.3-.08c-1.24.39-2.58.38-3.79-.1l-.02.18H23.09l.01-.09c-.4.11-.81.18-1.24.23-2.01.18-4.23 0-5.67-1.61l-.41 1.47H1.48L2.49 1.67h19.48l-1.01 3.6z"></path> <path class="fil2" d="M90.79 1.6V.98h.42c.12 0 .22.03.29.07.09.04.14.12.14.22 0 .14-.05.24-.15.28-.07.04-.18.05-.33.05h-.37zm1.02.08c.09-.09.14-.22.14-.38 0-.2-.06-.34-.18-.43-.11-.09-.29-.14-.52-.14h-.76v2h.3v-.88h.36l.01.03.5.85H92l-.57-.89c.17-.01.28-.07.38-.16zM31.29 13.24h3.36l.65-4.13c.1-.63-.05-1.14-.47-1.51a1.18 1.18 0 0 0-.21-.18c-.38-.27-.86-.4-1.41-.4-.94 0-1.66.2-2.16.59l.08-.49h-3.35L26 18.18l-.59 3.7h3.34l1.91-11.87c.07-.43.3-.66.68-.66.39 0 .54.23.47.68l-.52 3.21z"></path> <path class="fil2" d="m55.35 14.56-.72 4.49c-.05.3-.24.46-.57.46-.35 0-.51-.16-.46-.46l2.03-12.64c.05-.3.25-.45.6-.45.33 0 .48.15.43.45l-.58 3.61h3.37l.53-3.31c.2-1.21-.06-2.08-.78-2.61-.56-.42-1.4-.62-2.53-.62-2.85 0-4.46 1.18-4.84 3.55l-1.88 11.73c-.35 2.2.89 3.28 3.75 3.28.98 0 1.91-.25 2.77-.78.87-.52 1.38-1.21 1.52-2.08l.74-4.62h-3.38zm9.27-10.91h-3.34L59.2 16.59l-.85 5.29h3.35l2.02-12.57.9-5.66zM86 7.02c-2.6 0-4.07 1.03-4.39 3.11l-.32 1.98c-.13.8-.05 1.38.25 1.78.29.39 1.24 1.09 2.83 2.08.4.36.5 1.16.3 2.41-.15.96-.41 1.44-.79 1.44-.38 0-.52-.25-.44-.76l.5-3.13H80.6l-.15.96-.36 2.21c-.12.82-.01 1.48.36 1.96.51.68 1.53 1.02 3.05 1.02 2.64 0 4.12-1.04 4.45-3.12l.36-2.21c.16-.99-.11-1.79-.79-2.39-1.7-.99-2.61-1.69-2.74-2.1-.11-.4-.11-1.01.03-1.8.11-.77.39-1.16.81-1.16.41 0 .51.62.33 1.84l-.37 1.78h3.27l.46-2.92c.33-1.99-.78-2.98-3.31-2.98zM44.42 9.96l-1.31 8.21-.15.94c-.07.46-.3.69-.68.69-.39 0-.56-.23-.49-.69l1.32-8.2.15-.93c.07-.45.31-.68.7-.68.38 0 .54.21.46.66zm.4-2.4c-.37-.33-.93-.51-1.71-.53-.09-.01-.19-.01-.28-.01-.68 0-1.27.17-1.81.55-.53.37-.85.87-.95 1.49l-.81 5.03-.89 5.58c-.12.74.09 1.33.62 1.77.08.06.17.14.27.19.5.3 1.09.45 1.81.45s1.4-.23 2.04-.68c0-.01.01-.01.01-.01l.21.49h2.52l2.93-18.23h-3.35l-.61 3.91zm34.19 6.8c-1.71-.99-2.62-1.69-2.74-2.1-.11-.4-.11-1.01.02-1.8.12-.77.4-1.16.81-1.16.42 0 .52.62.33 1.84l-.37 1.78h3.27l.11-.72.36-2.19c.14-.85.02-1.51-.36-1.99-.5-.66-1.48-1.01-2.96-1.01-2.6 0-4.06 1.04-4.39 3.12l-.32 1.98c-.12.8-.05 1.38.26 1.78.29.39 1.23 1.09 2.82 2.08.41.36.51 1.16.31 2.41-.16.96-.42 1.44-.8 1.44-.38 0-.52-.25-.44-.76l.5-3.13h-3.34l-.16 1.08-.34 2.09c-.13.81-.02 1.45.34 1.93.5.71 1.52 1.05 3.06 1.05 2.64 0 4.13-1.04 4.46-3.12l.35-2.21c.16-.99-.1-1.79-.78-2.39zm-11.56 4.75c-.04.27-.13.46-.28.57-.11.08-.24.12-.38.12-.4 0-.56-.23-.49-.68l.43-2.68c.05-.29.19-.53.44-.73.22-.17.52-.29.9-.39l-.62 3.79zm4.79-8.98c.14-.87.03-1.56-.32-2.07-.5-.69-1.47-1.04-2.92-1.04-.68 0-1.3.06-1.83.2-1.52.38-2.4 1.31-2.64 2.79l-.47 2.95h3.23c.03-.22.07-.53.1-.95.05-.41.09-.73.12-.94.19-1.18.49-1.77.94-1.77.39 0 .54.24.46.73l-.35 2.18c-.04.26-.48.6-1.33 1.03-.02.01-.03.01-.06.02-1.42.72-2.4 1.33-2.91 1.82a3.006 3.006 0 0 0-.94 1.73l-.48 2.96c-.16 1.02.13 1.7.87 2.05.38.17.89.26 1.51.26.89 0 1.55-.15 1.95-.44.13-.1.24-.2.32-.33l-.09.57h2.95l1.56-9.7.33-2.05zM40.18 3.65h-3.34l-2.22 13.81-.71 4.42h3.36L39.26 9.4l.92-5.75zM23.2 10.03l-1.31 8.15-.14.88c-.07.51-.31.76-.69.76-.39 0-.55-.25-.47-.76l1.3-8.15.15-.88c.08-.49.3-.73.7-.73.39 0 .54.24.46.73zm3.36-.02c.14-.9-.05-1.58-.56-2.06-.07-.08-.16-.15-.25-.22-.71-.48-1.56-.72-2.6-.72-.45 0-.87.03-1.26.09-1.87.31-2.94 1.32-3.22 3.03l-.39 2.45-1.02 6.38c-.2 1.25.14 2.14 1.02 2.63.58.33 1.4.49 2.46.49.42 0 .8-.03 1.15-.08 1.87-.26 2.94-1.23 3.2-2.9l.91-5.66.56-3.43zm-7.19-6.36h-3.04l-2.59 8.41.34-8.41H9.9l-2.61 8.41.41-8.41H4.38l-.83 18.23h3.77l2.86-10.06-.29 10.06h4.39l4-14.36 1.09-3.87zm72.78-.9c-.26.28-.6.42-.99.42-.41 0-.74-.14-1-.42-.28-.28-.4-.62-.4-1.03 0-.41.12-.75.4-1.01.26-.28.59-.42 1-.42.39 0 .72.14.99.42.27.28.41.6.41 1.01 0 .41-.14.75-.41 1.03zm.23-2.26C92.04.16 91.64 0 91.16 0s-.9.16-1.24.49c-.34.33-.52.75-.52 1.23 0 .5.18.9.52 1.25.34.31.74.47 1.24.47.48 0 .89-.16 1.23-.49.34-.33.51-.73.51-1.23 0-.48-.18-.89-.52-1.23z"></path> </g> </g> </svg> 